<?xml version="1.0" encoding="UTF-8"?>
<svg id="Capa_1" data-name="Capa 1" xmlns="http://www.w3.org/2000/svg" viewBox="0 0 549.27 46.39">
  <path d="M52.48,46.01h-6.62L29.19,9.09,12.75,46.01h-6.54L26.53.99c.12-.16.29-.14.46-.16.97-.12,3.71-.11,4.69,0,.22.03.41.02.52.26l20.27,44.93Z"/>
  <g>
    <path d="M508.74,38.9l3.96-4.67c2.5,2.21,5.38,4.44,8.61,5.46,5.8,1.84,16.24,1.49,15.39-6.95-.55-5.47-9.87-6.3-14.06-7.49-7.66-2.18-13.72-6.35-11.64-15.38,2.6-11.3,18.11-11.56,26.53-6.99.77.42,3.78,2.28,4.19,2.85.1.14.2.21.07.39l-3.46,4.52c-1.38-.83-2.6-1.89-4.02-2.67-4.08-2.23-10.4-3.3-14.52-.72-3.87,2.42-3.93,7.68,0,10.09,5.44,3.33,12.86,2.61,18.53,6.62,7.95,5.62,5.3,17.47-3.33,20.96-7.91,3.2-17.69.75-24.2-4.38-.68-.54-1.32-1.25-2.05-1.63Z"/>
    <g>
      <path d="M392.42,23.17c0,12.8-10.38,23.18-23.19,23.18s-23.19-10.38-23.19-23.18S356.42,0,369.23,0s23.19,10.38,23.19,23.18ZM367.63,5.86c-12.68,1.05-18.42,15.6-12.7,26.18,5.63,10.42,20.71,11.54,27.55,1.76,8.24-11.78.29-29.19-14.84-27.95Z"/>
      <polygon points="95.25 1.15 95.25 7.08 80.57 7.08 80.57 46.1 74.32 46.1 74.32 7.08 59.87 7.08 59.63 6.84 59.63 1.15 95.25 1.15"/>
    </g>
    <g>
      <g>
        <path d="M252.89,46.1h-6.64l-16.56-37-16.87,37h-6.33L226.95.91c.22-.13,4.53-.15,5.09-.09.22.03.41.01.52.26l20.32,45.02Z"/>
        <polygon points="167.74 1.15 167.74 40.17 192.04 40.17 192.27 40.41 192.27 46.1 161.49 46.1 161.49 1.15 167.74 1.15"/>
      </g>
      <g>
        <rect x="110.09" y="1.15" width="32.34" height="5.78"/>
        <g>
          <rect x="110.09" y="40.33" width="32.65" height="5.78"/>
          <rect x="110.09" y="20.5" width="29.53" height="5.78"/>
        </g>
      </g>
    </g>
    <g>
      <polygon points="449.06 45.62 442.81 45.62 442.81 11.9 427.81 33.68 426.94 33.61 412.03 12.05 412.03 45.62 405.94 45.62 405.94 .66 411.8 .66 427.42 23.92 443.04 .66 448.82 .66 449.06 .89 449.06 45.62"/>
      <polygon points="302.52 20.02 326.26 20.02 326.26 .89 326.5 .66 332.51 .66 332.51 45.62 326.26 45.62 326.26 25.95 302.52 25.95 302.52 45.62 296.27 45.62 296.27 .66 302.28 .66 302.52 .89 302.52 20.02"/>
      <g>
        <rect x="462.81" y="40.62" width="32.65" height="5.78"/>
        <rect x="462.81" y="1.44" width="32.34" height="5.78"/>
        <rect x="462.81" y="20.8" width="29.53" height="5.78"/>
      </g>
    </g>
  </g>
</svg>