<?xml version="1.0" encoding="UTF-8"?>
<svg id="Capa_1" data-name="Capa 1" xmlns="http://www.w3.org/2000/svg" viewBox="0 0 252.61 114.66">
  <path d="M47.5,46.34h-6.78L23.66,8.55,6.84,46.34H.14L20.95.26c.12-.16.3-.15.47-.17,1-.12,3.8-.12,4.8,0,.23.03.42.02.53.26l20.75,45.99Z"/>
  <g>
    <path d="M217.45,106.99l4.06-4.78c2.56,2.26,5.51,4.54,8.81,5.59,5.93,1.88,16.62,1.53,15.75-7.11-.56-5.6-10.11-6.45-14.39-7.67-7.84-2.23-14.04-6.5-11.91-15.74,2.66-11.57,18.53-11.83,27.15-7.16.79.43,3.87,2.33,4.28,2.92.1.14.2.22.07.4l-3.54,4.63c-1.41-.85-2.66-1.94-4.11-2.73-4.18-2.29-10.64-3.38-14.87-.74-3.96,2.48-4.02,7.86,0,10.32,5.56,3.41,13.16,2.67,18.97,6.77,8.14,5.75,5.42,17.89-3.41,21.46-8.09,3.27-18.11.77-24.77-4.49-.69-.55-1.35-1.28-2.09-1.66Z"/>
    <g>
      <path d="M98.4,90.89c0,13.1-10.63,23.72-23.74,23.72s-23.74-10.62-23.74-23.72,10.63-23.72,23.74-23.72,23.74,10.62,23.74,23.72ZM73.02,73.17c-12.98,1.07-18.86,15.97-13,26.8s21.2,11.81,28.2,1.8c8.44-12.06.3-29.88-15.19-28.6Z"/>
      <polygon points="91.28 .42 91.28 6.49 76.25 6.49 76.25 46.44 69.86 46.44 69.86 6.49 55.07 6.49 54.83 6.25 54.83 .42 91.28 .42"/>
    </g>
    <g>
      <g>
        <path d="M252.63,46.44h-6.8l-16.95-37.87-17.27,37.87h-6.48L226.08.18c.22-.13,4.64-.15,5.21-.09.23.03.42.02.54.26l20.8,46.08Z"/>
        <polygon points="165.48 .42 165.48 40.36 190.34 40.36 190.58 40.6 190.58 46.44 159.08 46.44 159.08 .42 165.48 .42"/>
      </g>
      <g>
        <rect x="106.48" y=".42" width="33.1" height="5.91"/>
        <g>
          <rect x="106.48" y="40.52" width="33.42" height="5.91"/>
          <rect x="106.48" y="20.23" width="30.22" height="5.91"/>
        </g>
      </g>
    </g>
    <g>
      <polygon points="156.37 113.86 149.97 113.86 149.97 79.35 134.62 101.64 133.73 101.57 118.47 79.51 118.47 113.86 112.23 113.86 112.23 67.85 118.23 67.85 134.22 91.65 150.21 67.85 156.13 67.85 156.37 68.09 156.37 113.86"/>
      <polygon points="6.38 87.66 30.68 87.66 30.68 68.09 30.92 67.85 37.08 67.85 37.08 113.86 30.68 113.86 30.68 93.73 6.38 93.73 6.38 113.86 -.02 113.86 -.02 67.85 6.14 67.85 6.38 68.09 6.38 87.66"/>
      <g>
        <rect x="170.44" y="108.75" width="33.42" height="5.91"/>
        <rect x="170.44" y="68.65" width="33.1" height="5.91"/>
        <rect x="170.44" y="88.46" width="30.22" height="5.91"/>
      </g>
    </g>
  </g>
</svg>